<svg class="svg-icon" style="width: 36px; height: 36px;vertical-align: middle;fill: currentColor;overflow: hidden;" viewBox="0 0 1501 1024" version="1.1" xmlns="http://www.w3.org/2000/svg"><path d="M1365.333333 477.866667a68.266667 68.266667 0 0 1 136.533334 0v341.333333a204.8 204.8 0 0 1-204.8 204.8H204.8a204.8 204.8 0 0 1-204.8-204.8V204.8a204.8 204.8 0 0 1 204.8-204.8h1092.266667a204.8 204.8 0 0 1 204.8 204.8 68.266667 68.266667 0 0 1-136.533334 0 68.266667 68.266667 0 0 0-68.266666-68.266667H204.8a68.266667 68.266667 0 0 0-68.266667 68.266667v614.4a68.266667 68.266667 0 0 0 68.266667 68.266667h1092.266667a68.266667 68.266667 0 0 0 68.266666-68.266667V477.866667z" fill="#313645" /><path d="M884.258133 409.6a68.266667 68.266667 0 1 0 0-136.533333h-200.704a136.533333 136.533333 0 0 0-136.533333 136.533333v34.133333a136.533333 136.533333 0 0 0 136.533333 136.533334H819.2V614.4H614.4a68.266667 68.266667 0 0 0 0 136.533333h204.8a136.533333 136.533333 0 0 0 136.533333-136.533333v-34.133333a136.533333 136.533333 0 0 0-136.533333-136.533334h-135.5776V409.6h200.704z" fill="#313645" /><path d="M819.2 750.728533a68.266667 68.266667 0 1 1-136.533333 0v-67.857066a68.266667 68.266667 0 0 1 136.533333 0v67.857066zM819.2 341.333333a68.266667 68.266667 0 0 1-136.533333 0V273.066667a68.266667 68.266667 0 0 1 136.533333 0v68.266666z" fill="#313645" /></svg>
