<svg class="svg-icon" style="width: 36px; height: 36px;vertical-align: middle;fill: currentColor;overflow: hidden;" viewBox="0 0 1024 1024" version="1.1" xmlns="http://www.w3.org/2000/svg"><path d="M995.555556 989.866667c0 17.066667-11.377778 34.133333-28.444445 34.133333H56.888889c-17.066667 0-28.444444-17.066667-28.444445-34.133333V568.888889l164.977778-278.755556c5.688889-11.377778 22.755556-5.688889 34.133334-5.688889H312.888889c17.066667 0 28.444444 5.688889 28.444444 28.444445-5.688889 11.377778-17.066667 28.444444-34.133333 28.444444H238.933333L102.4 563.2H921.6L785.066667 341.333333h-68.266667c-17.066667 0-34.133333-17.066667-28.444444-34.133333 0-22.755556 5.688889-22.755556 22.755555-22.755556h85.333333c11.377778 0 28.444444 0 34.133334 11.377778L995.555556 568.888889v420.977778zM938.666667 625.777778H85.333333v341.333333h853.333334v-341.333333zM534.755556 500.622222c-5.688889 5.688889-11.377778 11.377778-22.755556 11.377778-5.688889 0-17.066667-5.688889-22.755556-11.377778L381.155556 403.911111c-11.377778-17.066667-17.066667-34.133333 0-51.2 11.377778-11.377778 28.444444-11.377778 45.511111 0l56.888889 51.2V34.133333c0-17.066667 11.377778-34.133333 34.133333-34.133333 17.066667 0 22.755556 17.066667 22.755555 34.133333v369.777778l62.577778-51.2c11.377778-11.377778 34.133333-11.377778 45.511111 0 11.377778 11.377778 11.377778 34.133333 0 45.511111l-113.777777 102.4z"  /></svg>